{
  "asset": {
    "version": "2.0",
    "generator": "examples/meshes/make_pyramid.py"
  },
  "scene": 0,
  "scenes": [
    {
      "nodes": [
        0
      ]
    }
  ],
  "nodes": [
    {
      "mesh": 0
    }
  ],
  "meshes": [
    {
      "primitives": [
        {
          "attributes": {
            "POSITION": 0,
            "NORMAL": 1,
            "TEXCOORD_0": 2
          },
          "indices": 3,
          "mode": 4
        }
      ]
    }
  ],
  "accessors": [
    {
      "bufferView": 0,
      "componentType": 5126,
      "count": 16,
      "type": "VEC3",
      "min": [
        -0.5,
        0.0,
        -0.5
      ],
      "max": [
        0.5,
        1.0,
        0.5
      ]
    },
    {
      "bufferView": 1,
      "componentType": 5126,
      "count": 16,
      "type": "VEC3"
    },
    {
      "bufferView": 2,
      "componentType": 5126,
      "count": 16,
      "type": "VEC2"
    },
    {
      "bufferView": 3,
      "componentType": 5123,
      "count": 18,
      "type": "SCALAR"
    }
  ],
  "bufferViews": [
    {
      "buffer": 0,
      "byteOffset": 0,
      "byteLength": 192
    },
    {
      "buffer": 0,
      "byteOffset": 192,
      "byteLength": 192
    },
    {
      "buffer": 0,
      "byteOffset": 384,
      "byteLength": 128
    },
    {
      "buffer": 0,
      "byteOffset": 512,
      "byteLength": 36
    }
  ],
  "buffers": [
    {
      "byteLength": 548,
      "uri": "data:application/octet-stream;base64,"
    }
  ]
}
