{
  "asset": {
    "version": "2.0",
    "generator": "forge examples/meshes/make_rigged_walker.py"
  },
  "scene": 0,
  "scenes": [
    {
      "nodes": [
        0,
        1
      ]
    }
  ],
  "nodes": [
    {
      "name": "Walker",
      "mesh": 0,
      "skin": 0
    },
    {
      "name": "Hips",
      "translation": [
        0.0,
        0.92,
        0.0
      ],
      "children": [
        2,
        8,
        11
      ]
    },
    {
      "name": "Chest",
      "translation": [
        0.0,
        0.32,
        0.0
      ],
      "children": [
        3,
        4,
        6
      ]
    },
    {
      "name": "Head",
      "translation": [
        0.0,
        0.34,
        0.0
      ]
    },
    {
      "name": "ArmL",
      "translation": [
        0.2,
        0.12,
        0.0
      ],
      "children": [
        5
      ]
    },
    {
      "name": "HandL",
      "translation": [
        0.08,
        -0.38,
        0.0
      ]
    },
    {
      "name": "ArmR",
      "translation": [
        -0.2,
        0.12,
        0.0
      ],
      "children": [
        7
      ]
    },
    {
      "name": "HandR",
      "translation": [
        -0.08,
        -0.38,
        0.0
      ]
    },
    {
      "name": "LegL",
      "translation": [
        0.11,
        -0.02,
        0.0
      ],
      "children": [
        9
      ]
    },
    {
      "name": "KneeL",
      "translation": [
        0.0,
        -0.42,
        0.0
      ],
      "children": [
        10
      ]
    },
    {
      "name": "FootL",
      "translation": [
        0.0,
        -0.42,
        0.0
      ]
    },
    {
      "name": "LegR",
      "translation": [
        -0.11,
        -0.02,
        0.0
      ],
      "children": [
        12
      ]
    },
    {
      "name": "KneeR",
      "translation": [
        0.0,
        -0.42,
        0.0
      ],
      "children": [
        13
      ]
    },
    {
      "name": "FootR",
      "translation": [
        0.0,
        -0.42,
        0.0
      ]
    }
  ],
  "skins": [
    {
      "name": "WalkerRig",
      "inverseBindMatrices": 6,
      "skeleton": 1,
      "joints": [
        1,
        2,
        3,
        4,
        5,
        6,
        7,
        8,
        9,
        10,
        11,
        12,
        13
      ]
    }
  ],
  "meshes": [
    {
      "name": "WalkerMesh",
      "primitives": [
        {
          "attributes": {
            "POSITION": 0,
            "NORMAL": 1,
            "TEXCOORD_0": 2,
            "JOINTS_0": 3,
            "WEIGHTS_0": 4
          },
          "indices": 5,
          "mode": 4
        }
      ]
    }
  ],
  "animations": [
    {
      "name": "Walk",
      "samplers": [
        {
          "input": 7,
          "output": 8,
          "interpolation": "LINEAR"
        },
        {
          "input": 7,
          "output": 9,
          "interpolation": "LINEAR"
        },
        {
          "input": 7,
          "output": 10,
          "interpolation": "LINEAR"
        },
        {
          "input": 7,
          "output": 11,
          "interpolation": "LINEAR"
        },
        {
          "input": 7,
          "output": 12,
          "interpolation": "LINEAR"
        },
        {
          "input": 7,
          "output": 13,
          "interpolation": "LINEAR"
        },
        {
          "input": 7,
          "output": 14,
          "interpolation": "LINEAR"
        },
        {
          "input": 7,
          "output": 15,
          "interpolation": "LINEAR"
        },
        {
          "input": 7,
          "output": 16,
          "interpolation": "LINEAR"
        },
        {
          "input": 7,
          "output": 17,
          "interpolation": "LINEAR"
        }
      ],
      "channels": [
        {
          "sampler": 0,
          "target": {
            "node": 1,
            "path": "translation"
          }
        },
        {
          "sampler": 1,
          "target": {
            "node": 2,
            "path": "rotation"
          }
        },
        {
          "sampler": 2,
          "target": {
            "node": 8,
            "path": "rotation"
          }
        },
        {
          "sampler": 3,
          "target": {
            "node": 9,
            "path": "rotation"
          }
        },
        {
          "sampler": 4,
          "target": {
            "node": 10,
            "path": "rotation"
          }
        },
        {
          "sampler": 5,
          "target": {
            "node": 11,
            "path": "rotation"
          }
        },
        {
          "sampler": 6,
          "target": {
            "node": 12,
            "path": "rotation"
          }
        },
        {
          "sampler": 7,
          "target": {
            "node": 13,
            "path": "rotation"
          }
        },
        {
          "sampler": 8,
          "target": {
            "node": 4,
            "path": "rotation"
          }
        },
        {
          "sampler": 9,
          "target": {
            "node": 6,
            "path": "rotation"
          }
        }
      ]
    },
    {
      "name": "Idle",
      "samplers": [
        {
          "input": 18,
          "output": 19,
          "interpolation": "LINEAR"
        },
        {
          "input": 18,
          "output": 20,
          "interpolation": "LINEAR"
        },
        {
          "input": 18,
          "output": 21,
          "interpolation": "LINEAR"
        },
        {
          "input": 18,
          "output": 22,
          "interpolation": "LINEAR"
        },
        {
          "input": 18,
          "output": 23,
          "interpolation": "LINEAR"
        }
      ],
      "channels": [
        {
          "sampler": 0,
          "target": {
            "node": 1,
            "path": "translation"
          }
        },
        {
          "sampler": 1,
          "target": {
            "node": 2,
            "path": "rotation"
          }
        },
        {
          "sampler": 2,
          "target": {
            "node": 3,
            "path": "rotation"
          }
        },
        {
          "sampler": 3,
          "target": {
            "node": 4,
            "path": "rotation"
          }
        },
        {
          "sampler": 4,
          "target": {
            "node": 6,
            "path": "rotation"
          }
        }
      ]
    }
  ],
  "accessors": [
    {
      "bufferView": 0,
      "componentType": 5126,
      "count": 472,
      "type": "VEC3",
      "min": [
        -0.326970389679364,
        0.06,
        -0.19
      ],
      "max": [
        0.326970389679364,
        1.8050000000000002,
        0.19
      ]
    },
    {
      "bufferView": 1,
      "componentType": 5126,
      "count": 472,
      "type": "VEC3"
    },
    {
      "bufferView": 2,
      "componentType": 5126,
      "count": 472,
      "type": "VEC2"
    },
    {
      "bufferView": 3,
      "componentType": 5123,
      "count": 472,
      "type": "VEC4"
    },
    {
      "bufferView": 4,
      "componentType": 5126,
      "count": 472,
      "type": "VEC4"
    },
    {
      "bufferView": 5,
      "componentType": 5123,
      "count": 708,
      "type": "SCALAR"
    },
    {
      "bufferView": 6,
      "componentType": 5126,
      "count": 13,
      "type": "MAT4"
    },
    {
      "bufferView": 7,
      "componentType": 5126,
      "count": 17,
      "type": "SCALAR",
      "min": [
        0.0
      ],
      "max": [
        1.0
      ]
    },
    {
      "bufferView": 8,
      "componentType": 5126,
      "count": 17,
      "type": "VEC3"
    },
    {
      "bufferView": 9,
      "componentType": 5126,
      "count": 17,
      "type": "VEC4"
    },
    {
      "bufferView": 10,
      "componentType": 5126,
      "count": 17,
      "type": "VEC4"
    },
    {
      "bufferView": 11,
      "componentType": 5126,
      "count": 17,
      "type": "VEC4"
    },
    {
      "bufferView": 12,
      "componentType": 5126,
      "count": 17,
      "type": "VEC4"
    },
    {
      "bufferView": 13,
      "componentType": 5126,
      "count": 17,
      "type": "VEC4"
    },
    {
      "bufferView": 14,
      "componentType": 5126,
      "count": 17,
      "type": "VEC4"
    },
    {
      "bufferView": 15,
      "componentType": 5126,
      "count": 17,
      "type": "VEC4"
    },
    {
      "bufferView": 16,
      "componentType": 5126,
      "count": 17,
      "type": "VEC4"
    },
    {
      "bufferView": 17,
      "componentType": 5126,
      "count": 17,
      "type": "VEC4"
    },
    {
      "bufferView": 18,
      "componentType": 5126,
      "count": 17,
      "type": "SCALAR",
      "min": [
        0.0
      ],
      "max": [
        4.0
      ]
    },
    {
      "bufferView": 19,
      "componentType": 5126,
      "count": 17,
      "type": "VEC3"
    },
    {
      "bufferView": 20,
      "componentType": 5126,
      "count": 17,
      "type": "VEC4"
    },
    {
      "bufferView": 21,
      "componentType": 5126,
      "count": 17,
      "type": "VEC4"
    },
    {
      "bufferView": 22,
      "componentType": 5126,
      "count": 17,
      "type": "VEC4"
    },
    {
      "bufferView": 23,
      "componentType": 5126,
      "count": 17,
      "type": "VEC4"
    }
  ],
  "bufferViews": [
    {
      "buffer": 0,
      "byteOffset": 0,
      "byteLength": 5664,
      "target": 34962
    },
    {
      "buffer": 0,
      "byteOffset": 5664,
      "byteLength": 5664,
      "target": 34962
    },
    {
      "buffer": 0,
      "byteOffset": 11328,
      "byteLength": 3776,
      "target": 34962
    },
    {
      "buffer": 0,
      "byteOffset": 15104,
      "byteLength": 3776,
      "target": 34962
    },
    {
      "buffer": 0,
      "byteOffset": 18880,
      "byteLength": 7552,
      "target": 34962
    },
    {
      "buffer": 0,
      "byteOffset": 26432,
      "byteLength": 1416,
      "target": 34963
    },
    {
      "buffer": 0,
      "byteOffset": 27848,
      "byteLength": 832
    },
    {
      "buffer": 0,
      "byteOffset": 28680,
      "byteLength": 68
    },
    {
      "buffer": 0,
      "byteOffset": 28748,
      "byteLength": 204
    },
    {
      "buffer": 0,
      "byteOffset": 28952,
      "byteLength": 272
    },
    {
      "buffer": 0,
      "byteOffset": 29224,
      "byteLength": 272
    },
    {
      "buffer": 0,
      "byteOffset": 29496,
      "byteLength": 272
    },
    {
      "buffer": 0,
      "byteOffset": 29768,
      "byteLength": 272
    },
    {
      "buffer": 0,
      "byteOffset": 30040,
      "byteLength": 272
    },
    {
      "buffer": 0,
      "byteOffset": 30312,
      "byteLength": 272
    },
    {
      "buffer": 0,
      "byteOffset": 30584,
      "byteLength": 272
    },
    {
      "buffer": 0,
      "byteOffset": 30856,
      "byteLength": 272
    },
    {
      "buffer": 0,
      "byteOffset": 31128,
      "byteLength": 272
    },
    {
      "buffer": 0,
      "byteOffset": 31400,
      "byteLength": 68
    },
    {
      "buffer": 0,
      "byteOffset": 31468,
      "byteLength": 204
    },
    {
      "buffer": 0,
      "byteOffset": 31672,
      "byteLength": 272
    },
    {
      "buffer": 0,
      "byteOffset": 31944,
      "byteLength": 272
    },
    {
      "buffer": 0,
      "byteOffset": 32216,
      "byteLength": 272
    },
    {
      "buffer": 0,
      "byteOffset": 32488,
      "byteLength": 272
    }
  ],
  "buffers": [
    {
      "byteLength": 32760,
      "uri": "data:application/octet-stream;base64,"
    }
  ]
}
