{
  "asset": {
    "version": "2.0",
    "generator": "forge examples/meshes/make_rigged_arm.py"
  },
  "scene": 0,
  "scenes": [
    {
      "nodes": [
        0,
        1,
        4
      ]
    }
  ],
  "nodes": [
    {
      "name": "Arm",
      "mesh": 0,
      "skin": 0
    },
    {
      "name": "Shoulder",
      "children": [
        2
      ]
    },
    {
      "name": "Elbow",
      "translation": [
        0.0,
        1.0,
        0.0
      ],
      "children": [
        3
      ]
    },
    {
      "name": "Hand",
      "translation": [
        0.0,
        1.0,
        0.0
      ]
    },
    {
      "name": "Marker",
      "translation": [
        0.0,
        0.0,
        0.0
      ]
    }
  ],
  "skins": [
    {
      "name": "ArmRig",
      "inverseBindMatrices": 5,
      "skeleton": 1,
      "joints": [
        1,
        2,
        3
      ]
    }
  ],
  "meshes": [
    {
      "name": "ArmMesh",
      "primitives": [
        {
          "attributes": {
            "POSITION": 0,
            "NORMAL": 1,
            "JOINTS_0": 2,
            "WEIGHTS_0": 3
          },
          "indices": 4,
          "mode": 4
        }
      ]
    }
  ],
  "animations": [
    {
      "name": "Wave",
      "samplers": [
        {
          "input": 6,
          "output": 7,
          "interpolation": "LINEAR"
        },
        {
          "input": 8,
          "output": 9,
          "interpolation": "LINEAR"
        }
      ],
      "channels": [
        {
          "sampler": 0,
          "target": {
            "node": 2,
            "path": "rotation"
          }
        },
        {
          "sampler": 1,
          "target": {
            "node": 4,
            "path": "translation"
          }
        }
      ]
    },
    {
      "name": "Sway",
      "samplers": [
        {
          "input": 10,
          "output": 11,
          "interpolation": "LINEAR"
        }
      ],
      "channels": [
        {
          "sampler": 0,
          "target": {
            "node": 1,
            "path": "rotation"
          }
        }
      ]
    }
  ],
  "accessors": [
    {
      "bufferView": 0,
      "componentType": 5126,
      "count": 136,
      "type": "VEC3",
      "min": [
        -0.18,
        0.0,
        -0.18
      ],
      "max": [
        0.18,
        2.0,
        0.18
      ]
    },
    {
      "bufferView": 1,
      "componentType": 5126,
      "count": 136,
      "type": "VEC3"
    },
    {
      "bufferView": 2,
      "componentType": 5123,
      "count": 136,
      "type": "VEC4"
    },
    {
      "bufferView": 3,
      "componentType": 5126,
      "count": 136,
      "type": "VEC4"
    },
    {
      "bufferView": 4,
      "componentType": 5123,
      "count": 204,
      "type": "SCALAR"
    },
    {
      "bufferView": 5,
      "componentType": 5126,
      "count": 3,
      "type": "MAT4"
    },
    {
      "bufferView": 6,
      "componentType": 5126,
      "count": 3,
      "type": "SCALAR",
      "min": [
        0.0
      ],
      "max": [
        1.0
      ]
    },
    {
      "bufferView": 7,
      "componentType": 5126,
      "count": 3,
      "type": "VEC4"
    },
    {
      "bufferView": 8,
      "componentType": 5126,
      "count": 2,
      "type": "SCALAR",
      "min": [
        0.0
      ],
      "max": [
        1.0
      ]
    },
    {
      "bufferView": 9,
      "componentType": 5126,
      "count": 2,
      "type": "VEC3"
    },
    {
      "bufferView": 10,
      "componentType": 5126,
      "count": 3,
      "type": "SCALAR",
      "min": [
        0.0
      ],
      "max": [
        2.0
      ]
    },
    {
      "bufferView": 11,
      "componentType": 5126,
      "count": 3,
      "type": "VEC4"
    }
  ],
  "bufferViews": [
    {
      "buffer": 0,
      "byteOffset": 0,
      "byteLength": 1632,
      "target": 34962
    },
    {
      "buffer": 0,
      "byteOffset": 1632,
      "byteLength": 1632,
      "target": 34962
    },
    {
      "buffer": 0,
      "byteOffset": 3264,
      "byteLength": 1088,
      "target": 34962
    },
    {
      "buffer": 0,
      "byteOffset": 4352,
      "byteLength": 2176,
      "target": 34962
    },
    {
      "buffer": 0,
      "byteOffset": 6528,
      "byteLength": 408,
      "target": 34963
    },
    {
      "buffer": 0,
      "byteOffset": 6936,
      "byteLength": 192
    },
    {
      "buffer": 0,
      "byteOffset": 7128,
      "byteLength": 12
    },
    {
      "buffer": 0,
      "byteOffset": 7140,
      "byteLength": 48
    },
    {
      "buffer": 0,
      "byteOffset": 7188,
      "byteLength": 8
    },
    {
      "buffer": 0,
      "byteOffset": 7196,
      "byteLength": 24
    },
    {
      "buffer": 0,
      "byteOffset": 7220,
      "byteLength": 12
    },
    {
      "buffer": 0,
      "byteOffset": 7232,
      "byteLength": 48
    }
  ],
  "buffers": [
    {
      "byteLength": 7280,
      "uri": "data:application/octet-stream;base64,"
    }
  ]
}
