{
  "asset": {
    "version": "2.0",
    "generator": "forge examples/meshes/make_rigged_soldier.py"
  },
  "scene": 0,
  "scenes": [
    {
      "nodes": [
        0,
        1
      ]
    }
  ],
  "nodes": [
    {
      "name": "Soldier",
      "mesh": 0,
      "skin": 0
    },
    {
      "name": "Hips",
      "translation": [
        0.0,
        0.92,
        0.0
      ],
      "children": [
        2,
        12,
        15
      ]
    },
    {
      "name": "Spine",
      "translation": [
        0.0,
        0.18,
        0.0
      ],
      "children": [
        3
      ]
    },
    {
      "name": "Chest",
      "translation": [
        0.0,
        0.2,
        0.0
      ],
      "children": [
        4,
        6,
        9
      ]
    },
    {
      "name": "Neck",
      "translation": [
        0.0,
        0.18,
        0.0
      ],
      "children": [
        5
      ]
    },
    {
      "name": "Head",
      "translation": [
        0.0,
        0.12,
        0.0
      ]
    },
    {
      "name": "ShoulderL",
      "translation": [
        0.19,
        0.12,
        0.0
      ],
      "children": [
        7
      ]
    },
    {
      "name": "ElbowL",
      "translation": [
        0.04,
        -0.15,
        -0.14
      ],
      "children": [
        8
      ]
    },
    {
      "name": "HandL",
      "translation": [
        -0.08,
        -0.07,
        -0.2
      ]
    },
    {
      "name": "ShoulderR",
      "translation": [
        -0.19,
        0.12,
        0.0
      ],
      "children": [
        10
      ]
    },
    {
      "name": "ElbowR",
      "translation": [
        -0.04,
        -0.15,
        -0.13
      ],
      "children": [
        11
      ]
    },
    {
      "name": "HandR",
      "translation": [
        0.11,
        -0.07,
        -0.2
      ]
    },
    {
      "name": "LegL",
      "translation": [
        0.1,
        -0.02,
        0.0
      ],
      "children": [
        13
      ]
    },
    {
      "name": "KneeL",
      "translation": [
        0.0,
        -0.41,
        0.0
      ],
      "children": [
        14
      ]
    },
    {
      "name": "FootL",
      "translation": [
        0.0,
        -0.42,
        0.0
      ]
    },
    {
      "name": "LegR",
      "translation": [
        -0.1,
        -0.02,
        0.0
      ],
      "children": [
        16
      ]
    },
    {
      "name": "KneeR",
      "translation": [
        0.0,
        -0.41,
        0.0
      ],
      "children": [
        17
      ]
    },
    {
      "name": "FootR",
      "translation": [
        0.0,
        -0.42,
        0.0
      ]
    }
  ],
  "skins": [
    {
      "name": "SoldierRig",
      "inverseBindMatrices": 6,
      "skeleton": 1,
      "joints": [
        1,
        2,
        3,
        4,
        5,
        6,
        7,
        8,
        9,
        10,
        11,
        12,
        13,
        14,
        15,
        16,
        17
      ]
    }
  ],
  "meshes": [
    {
      "name": "SoldierMesh",
      "primitives": [
        {
          "attributes": {
            "POSITION": 0,
            "NORMAL": 1,
            "TEXCOORD_0": 2,
            "JOINTS_0": 3,
            "WEIGHTS_0": 4
          },
          "indices": 5,
          "mode": 4
        }
      ]
    }
  ],
  "animations": [
    {
      "name": "Idle",
      "samplers": [
        {
          "input": 7,
          "output": 8,
          "interpolation": "LINEAR"
        },
        {
          "input": 7,
          "output": 9,
          "interpolation": "LINEAR"
        },
        {
          "input": 7,
          "output": 10,
          "interpolation": "LINEAR"
        },
        {
          "input": 7,
          "output": 11,
          "interpolation": "LINEAR"
        },
        {
          "input": 7,
          "output": 12,
          "interpolation": "LINEAR"
        },
        {
          "input": 7,
          "output": 13,
          "interpolation": "LINEAR"
        }
      ],
      "channels": [
        {
          "sampler": 0,
          "target": {
            "node": 1,
            "path": "translation"
          }
        },
        {
          "sampler": 1,
          "target": {
            "node": 2,
            "path": "rotation"
          }
        },
        {
          "sampler": 2,
          "target": {
            "node": 4,
            "path": "rotation"
          }
        },
        {
          "sampler": 3,
          "target": {
            "node": 6,
            "path": "rotation"
          }
        },
        {
          "sampler": 4,
          "target": {
            "node": 9,
            "path": "rotation"
          }
        },
        {
          "sampler": 5,
          "target": {
            "node": 10,
            "path": "rotation"
          }
        }
      ]
    },
    {
      "name": "Run",
      "samplers": [
        {
          "input": 14,
          "output": 15,
          "interpolation": "LINEAR"
        },
        {
          "input": 14,
          "output": 16,
          "interpolation": "LINEAR"
        },
        {
          "input": 14,
          "output": 17,
          "interpolation": "LINEAR"
        },
        {
          "input": 14,
          "output": 18,
          "interpolation": "LINEAR"
        },
        {
          "input": 14,
          "output": 19,
          "interpolation": "LINEAR"
        },
        {
          "input": 14,
          "output": 20,
          "interpolation": "LINEAR"
        },
        {
          "input": 14,
          "output": 21,
          "interpolation": "LINEAR"
        },
        {
          "input": 14,
          "output": 22,
          "interpolation": "LINEAR"
        },
        {
          "input": 14,
          "output": 23,
          "interpolation": "LINEAR"
        },
        {
          "input": 14,
          "output": 24,
          "interpolation": "LINEAR"
        },
        {
          "input": 14,
          "output": 25,
          "interpolation": "LINEAR"
        },
        {
          "input": 14,
          "output": 26,
          "interpolation": "LINEAR"
        }
      ],
      "channels": [
        {
          "sampler": 0,
          "target": {
            "node": 1,
            "path": "translation"
          }
        },
        {
          "sampler": 1,
          "target": {
            "node": 1,
            "path": "rotation"
          }
        },
        {
          "sampler": 2,
          "target": {
            "node": 3,
            "path": "rotation"
          }
        },
        {
          "sampler": 3,
          "target": {
            "node": 4,
            "path": "rotation"
          }
        },
        {
          "sampler": 4,
          "target": {
            "node": 12,
            "path": "rotation"
          }
        },
        {
          "sampler": 5,
          "target": {
            "node": 13,
            "path": "rotation"
          }
        },
        {
          "sampler": 6,
          "target": {
            "node": 14,
            "path": "rotation"
          }
        },
        {
          "sampler": 7,
          "target": {
            "node": 15,
            "path": "rotation"
          }
        },
        {
          "sampler": 8,
          "target": {
            "node": 16,
            "path": "rotation"
          }
        },
        {
          "sampler": 9,
          "target": {
            "node": 17,
            "path": "rotation"
          }
        },
        {
          "sampler": 10,
          "target": {
            "node": 6,
            "path": "rotation"
          }
        },
        {
          "sampler": 11,
          "target": {
            "node": 9,
            "path": "rotation"
          }
        }
      ]
    }
  ],
  "accessors": [
    {
      "bufferView": 0,
      "componentType": 5126,
      "count": 712,
      "type": "VEC3",
      "min": [
        -0.29102912303079437,
        -0.0049999999999999975,
        -0.36765042312148283
      ],
      "max": [
        0.29024976640400674,
        1.79,
        0.185
      ]
    },
    {
      "bufferView": 1,
      "componentType": 5126,
      "count": 712,
      "type": "VEC3"
    },
    {
      "bufferView": 2,
      "componentType": 5126,
      "count": 712,
      "type": "VEC2"
    },
    {
      "bufferView": 3,
      "componentType": 5123,
      "count": 712,
      "type": "VEC4"
    },
    {
      "bufferView": 4,
      "componentType": 5126,
      "count": 712,
      "type": "VEC4"
    },
    {
      "bufferView": 5,
      "componentType": 5123,
      "count": 1068,
      "type": "SCALAR"
    },
    {
      "bufferView": 6,
      "componentType": 5126,
      "count": 17,
      "type": "MAT4"
    },
    {
      "bufferView": 7,
      "componentType": 5126,
      "count": 17,
      "type": "SCALAR",
      "min": [
        0.0
      ],
      "max": [
        3.6
      ]
    },
    {
      "bufferView": 8,
      "componentType": 5126,
      "count": 17,
      "type": "VEC3"
    },
    {
      "bufferView": 9,
      "componentType": 5126,
      "count": 17,
      "type": "VEC4"
    },
    {
      "bufferView": 10,
      "componentType": 5126,
      "count": 17,
      "type": "VEC4"
    },
    {
      "bufferView": 11,
      "componentType": 5126,
      "count": 17,
      "type": "VEC4"
    },
    {
      "bufferView": 12,
      "componentType": 5126,
      "count": 17,
      "type": "VEC4"
    },
    {
      "bufferView": 13,
      "componentType": 5126,
      "count": 17,
      "type": "VEC4"
    },
    {
      "bufferView": 14,
      "componentType": 5126,
      "count": 17,
      "type": "SCALAR",
      "min": [
        0.0
      ],
      "max": [
        0.62
      ]
    },
    {
      "bufferView": 15,
      "componentType": 5126,
      "count": 17,
      "type": "VEC3"
    },
    {
      "bufferView": 16,
      "componentType": 5126,
      "count": 17,
      "type": "VEC4"
    },
    {
      "bufferView": 17,
      "componentType": 5126,
      "count": 17,
      "type": "VEC4"
    },
    {
      "bufferView": 18,
      "componentType": 5126,
      "count": 17,
      "type": "VEC4"
    },
    {
      "bufferView": 19,
      "componentType": 5126,
      "count": 17,
      "type": "VEC4"
    },
    {
      "bufferView": 20,
      "componentType": 5126,
      "count": 17,
      "type": "VEC4"
    },
    {
      "bufferView": 21,
      "componentType": 5126,
      "count": 17,
      "type": "VEC4"
    },
    {
      "bufferView": 22,
      "componentType": 5126,
      "count": 17,
      "type": "VEC4"
    },
    {
      "bufferView": 23,
      "componentType": 5126,
      "count": 17,
      "type": "VEC4"
    },
    {
      "bufferView": 24,
      "componentType": 5126,
      "count": 17,
      "type": "VEC4"
    },
    {
      "bufferView": 25,
      "componentType": 5126,
      "count": 17,
      "type": "VEC4"
    },
    {
      "bufferView": 26,
      "componentType": 5126,
      "count": 17,
      "type": "VEC4"
    }
  ],
  "bufferViews": [
    {
      "buffer": 0,
      "byteOffset": 0,
      "byteLength": 8544,
      "target": 34962
    },
    {
      "buffer": 0,
      "byteOffset": 8544,
      "byteLength": 8544,
      "target": 34962
    },
    {
      "buffer": 0,
      "byteOffset": 17088,
      "byteLength": 5696,
      "target": 34962
    },
    {
      "buffer": 0,
      "byteOffset": 22784,
      "byteLength": 5696,
      "target": 34962
    },
    {
      "buffer": 0,
      "byteOffset": 28480,
      "byteLength": 11392,
      "target": 34962
    },
    {
      "buffer": 0,
      "byteOffset": 39872,
      "byteLength": 2136,
      "target": 34963
    },
    {
      "buffer": 0,
      "byteOffset": 42008,
      "byteLength": 1088
    },
    {
      "buffer": 0,
      "byteOffset": 43096,
      "byteLength": 68
    },
    {
      "buffer": 0,
      "byteOffset": 43164,
      "byteLength": 204
    },
    {
      "buffer": 0,
      "byteOffset": 43368,
      "byteLength": 272
    },
    {
      "buffer": 0,
      "byteOffset": 43640,
      "byteLength": 272
    },
    {
      "buffer": 0,
      "byteOffset": 43912,
      "byteLength": 272
    },
    {
      "buffer": 0,
      "byteOffset": 44184,
      "byteLength": 272
    },
    {
      "buffer": 0,
      "byteOffset": 44456,
      "byteLength": 272
    },
    {
      "buffer": 0,
      "byteOffset": 44728,
      "byteLength": 68
    },
    {
      "buffer": 0,
      "byteOffset": 44796,
      "byteLength": 204
    },
    {
      "buffer": 0,
      "byteOffset": 45000,
      "byteLength": 272
    },
    {
      "buffer": 0,
      "byteOffset": 45272,
      "byteLength": 272
    },
    {
      "buffer": 0,
      "byteOffset": 45544,
      "byteLength": 272
    },
    {
      "buffer": 0,
      "byteOffset": 45816,
      "byteLength": 272
    },
    {
      "buffer": 0,
      "byteOffset": 46088,
      "byteLength": 272
    },
    {
      "buffer": 0,
      "byteOffset": 46360,
      "byteLength": 272
    },
    {
      "buffer": 0,
      "byteOffset": 46632,
      "byteLength": 272
    },
    {
      "buffer": 0,
      "byteOffset": 46904,
      "byteLength": 272
    },
    {
      "buffer": 0,
      "byteOffset": 47176,
      "byteLength": 272
    },
    {
      "buffer": 0,
      "byteOffset": 47448,
      "byteLength": 272
    },
    {
      "buffer": 0,
      "byteOffset": 47720,
      "byteLength": 272
    }
  ],
  "buffers": [
    {
      "byteLength": 47992,
      "uri": "data:application/octet-stream;base64,"
    }
  ]
}
