{
  "asset": {
    "version": "2.0",
    "generator": "forge examples/meshes/make_weapons.py"
  },
  "scene": 0,
  "scenes": [
    {
      "nodes": [
        0
      ]
    }
  ],
  "nodes": [
    {
      "name": "Rifle",
      "mesh": 0
    }
  ],
  "meshes": [
    {
      "name": "RifleMesh",
      "primitives": [
        {
          "attributes": {
            "POSITION": 0,
            "NORMAL": 1,
            "TEXCOORD_0": 2
          },
          "indices": 3,
          "mode": 4
        }
      ]
    }
  ],
  "accessors": [
    {
      "bufferView": 0,
      "componentType": 5126,
      "count": 168,
      "type": "VEC3",
      "min": [
        -0.03,
        -0.125,
        -0.6
      ],
      "max": [
        0.03,
        0.076,
        0.31
      ]
    },
    {
      "bufferView": 1,
      "componentType": 5126,
      "count": 168,
      "type": "VEC3"
    },
    {
      "bufferView": 2,
      "componentType": 5126,
      "count": 168,
      "type": "VEC2"
    },
    {
      "bufferView": 3,
      "componentType": 5123,
      "count": 252,
      "type": "SCALAR"
    }
  ],
  "bufferViews": [
    {
      "buffer": 0,
      "byteOffset": 0,
      "byteLength": 2016,
      "target": 34962
    },
    {
      "buffer": 0,
      "byteOffset": 2016,
      "byteLength": 2016,
      "target": 34962
    },
    {
      "buffer": 0,
      "byteOffset": 4032,
      "byteLength": 1344,
      "target": 34962
    },
    {
      "buffer": 0,
      "byteOffset": 5376,
      "byteLength": 504,
      "target": 34963
    }
  ],
  "buffers": [
    {
      "byteLength": 5880,
      "uri": "data:application/octet-stream;base64,"
    }
  ]
}
